<?xml version="1.0" encoding="utf-8"?>
<!-- Generator: Adobe Illustrator 21.0.0, SVG Export Plug-In . SVG Version: 6.00 Build 0)  -->
<svg version="1.1" id="Layer_1" xmlns="http://www.w3.org/2000/svg" xmlns:xlink="http://www.w3.org/1999/xlink" x="0px" y="0px"
	 viewBox="0 0 200 154" style="enable-background:new 0 0 200 154;" xml:space="preserve">
<style type="text/css">
	.st0{fill-rule:evenodd;clip-rule:evenodd;fill:#8ACA85;}
	.st1{fill-rule:evenodd;clip-rule:evenodd;fill:#347137;}
	.st2{fill:#4B2B0F;}
	.st3{fill-rule:evenodd;clip-rule:evenodd;fill:#4B2B0F;}
</style>
<g>
	<path class="st0" d="M106.8,2.9c0-0.1-0.1-0.2-0.1-0.4c-0.2-0.3-0.2-0.6-0.2-0.9l0-0.1l1.1-0.5c0,0,0,0,0,0
		c0.9-0.6,2.6-1.3,3.6-0.6c0.3,0.2,0.5,0.5,0.6,0.9c0.1,0.2,0.1,0.5,0,0.7c-0.2,0.8-1,1.4-1.6,1.8c-0.3,0.2-0.9,0.6-1.4,0.9
		c0.5-0.1,0.9-0.2,1.3-0.3c0.8-0.2,2.7-0.8,3.2,0.3l0,0l0,0c0.1,1.3-0.3,1.4-1.2,2.1c-0.9,0.6-1.8,1.2-2.7,1.7
		c-0.3,0.2-1.4,0.9-2.1,1.4c0.6-0.2,1.3-0.4,1.8-0.6c1-0.3,2.7-0.9,3.5,0.1c0.8,1-0.3,2-1,2.7c-2.7,2.2-5.6,4.2-8.4,6.2
		c-0.4,0.3-1,0.7-1.5,1.1c0.2-0.1,0.5-0.2,0.7-0.2c0.7-0.3,1.3-0.6,2-0.8c1.1-0.5,2.1-1,3.2-1.5l5-2.1c0.8-0.4,1.1-0.2,1.8,0.2
		l0.1,0.1l0,0.1c0.1,0.7,0.3,1.4-0.4,1.8c-1.1,0.7-2.3,1.3-3.5,1.9c-0.7,0.4-1.5,0.8-2.3,1.1c-0.4,0.2-0.9,0.5-1.3,0.7
		c-0.1,0.1-0.2,0.1-0.4,0.2c0.3-0.1,0.7-0.2,0.9-0.3c1-0.3,1.9-0.6,2.9-0.9c0.9-0.3,1.7-0.6,2.6-0.9c0.6-0.2,1.2-0.4,1.8-0.6
		c0.9-0.2,2.8-0.9,3.4,0.1c0.9,1.7-3.1,3.1-4.1,3.6c-1.9,0.9-12,5.1-14.7,6.7c0.2,0,0.5-0.1,0.6-0.1c0.7-0.1,1.5-0.3,2.2-0.5
		c1.2-0.3,2.4-0.6,3.5-0.9c2.3-0.6,4.6-1.3,6.9-1.9c1.8-0.5,3.5-1,5.3-1.4c1.7-0.5,3.5-0.9,5.3-1.2c1.4-0.2,2.4-0.5,3.8,0.3l0.1,0.1
		l0,0.1c0.1,1.5-0.5,1.8-1.6,2.5c-1.6,0.9-3.3,1.7-5,2.5c-2,0.9-4,1.9-6.1,2.8c-1.2,0.6-2.5,1.1-3.7,1.6c-1,0.4-2,0.8-3,1.2
		c-0.9,0.3-1.9,0.8-2.8,1.1c-1.7,0.7-3.3,1.4-5,2.1c-1.6,0.7-3.2,1.4-4.8,2.1c-0.9,0.4-1.9,0.8-2.8,1.3c-0.6,0.3-3.3,1.4-4.4,2
		c2.4,0.1,5.7-0.1,7.8-0.8c3-1.1,6-2.1,9-3.3c2-0.8,4.2-1.3,6.2-2c0.8-0.3,1.9-0.3,2.3,0.5c0.2,0.3,0.2,0.7,0,1.1
		c0,0.1-0.1,0.2-0.2,0.3c1.6-0.6,3.9-1.5,4.6-1.2c0.8,0.3,1.1,1.3,0.6,2c-0.6,0.8-9.2,4-10.8,4.6c-1.2,0.5-2.3,1-3.5,1.4
		c-0.9,0.3-1.8,0.7-2.6,1c-1.4,0.6-2.8,1.2-4.3,1.8c-0.7,0.3-4.7,2-6.2,2.8c0.6-0.1,1.3-0.2,1.8-0.3c1.3-0.3,2.6-0.6,3.9-0.9
		c1.2-0.3,2.3-0.6,3.5-0.9c0.9-0.2,1.7-0.5,2.6-0.7c2.1-0.5,4.1-1.2,6.1-1.7c1-0.3,2-0.6,3-0.8c1-0.3,2-0.6,3.1-0.8
		c0.5-0.1,1-0.2,1.4-0.3c0.7-0.2,1.3-0.3,2-0.4c1-0.2,3.6-0.6,4.2,0.3c0.2,0.4,0.2,0.8,0,1.2c-0.5,1.2-5.6,2.8-8.3,3.6
		c3.1-0.8,6.3-1.7,9.5-2.2c1.1-0.2,5.2-1.6,6-0.6l0,0l0,0c0.9,2.3-2.4,3.1-4,3.6c-0.9,0.3-1.8,0.6-2.7,0.9
		c-6.4,2.1-12.9,3.8-19.3,5.8c-3.7,1.2-7.4,2.2-11.1,3.2c-1,0.3-1.9,0.6-2.9,0.8c-0.1,0-0.1,0-0.2,0c0,0,0.1,0,0.1,0
		c0.9-0.2,1.8-0.4,2.6-0.7c1.7-0.4,3.3-0.8,5-1.2l5.1-1.2c2.4-0.6,4.9-1.1,7.3-1.7c2.6-0.6,5.2-1.3,7.7-2.1c1.6-0.5,6.6-2.5,7.9-1.1
		c0.3,0.3,0.5,0.7,0.5,1.1c-0.2,1.2-2.2,1.9-3.2,2.4c-0.7,0.3-1.4,0.7-2.1,1c-1.5,0.6-2.9,1.2-4.4,1.9c-7.4,3.2-15,5.9-22.4,9.2
		c-1.1,0.5-2.4,0.9-3.5,1.5c1.4-0.1,3.2-0.4,4.4-0.7c0.6-0.1,1.2-0.1,1.8-0.2c6.7-1.1,13.5-1.9,20.1-3.8c1-0.3,2-0.6,3.1-0.9
		c4.2-1,8.2-2.3,12.3-3.6c0.9-0.3,2.6-1.1,3.3,0c0.2,0.3,0.3,0.7,0.1,1.1c-0.3,0.7-1.1,1.1-1.7,1.5c-2.6,1.5-5.9,2.6-8.9,3.1
		c-3.3,0.6-6.6,1.5-10,1.9c-1.7,0.2-3.4,0.7-5,1.2c-1.5,0.4-3,0.9-4.5,1.3c-6.2,1.8-12.4,3.5-18.5,5.4c-0.7,0.2-3.8,1-5.2,1.6
		c1.3,0,2.5-0.2,3.7-0.3c1.4-0.1,2.8-0.5,4.2-0.6c2.6-0.2,5.2-1.3,7.8-1.7c1.3-0.2,2.5-0.7,3.8-1c3.8-1.1,7.6-2.1,11.4-3.1
		c2-0.5,3.9-1.1,5.9-1.5c1.2-0.3,2.4-0.5,3.6-0.7c0.8-0.1,1.9-0.3,2.7-0.2c1.7,0.2,2.6,1.9,1.1,3.1c-1,0.8-2.4,1.5-3.6,2
		c-1,0.4-2,0.8-3,1.2c-1.1,0.4-2.3,0.9-3.4,1.3c-0.8,0.3-1.5,0.6-2.2,0.9c-0.1,0-0.3,0.1-0.5,0.2l1.7-0.4c2.5-0.6,5-1.2,7.6-1.8
		l9.9-2.3c2-0.5,9.2-2.5,10.7-1.5c0.9,0.6,0.9,1.8,0,2.4c-0.9,0.6-2.7,1-3.7,1.2c-1.2,0.3-2.5,0.5-3.7,0.8
		c-4.9,1.1-9.9,2.3-14.6,4.1c-6.1,2.3-12.3,4.3-18.4,6.5c-0.5,0.2-2.6,0.8-3.7,1.3c1.5-0.1,2.9-0.5,4.3-0.6c1.7-0.2,3.3-0.5,5-0.7
		l7.6-1.1c2.6-0.4,5.1-0.7,7.7-1.1c2.1-0.3,8.7-1.5,10.5-1c1,0.3,1.2,1.6,0.5,2.3c-0.7,0.8-5.6,1.8-6.9,2c-3.2,0.6-6.4,1.2-9.6,2
		c-0.8,0.2-1.6,0.4-2.4,0.5c-0.8,0.1-1.5,0.4-2.3,0.5c-1.1,0.2-2.3,0.5-3.4,0.7c-1.9,0.4-3.9,0.9-5.8,1.3c-2,0.5-4,0.9-6,1.4
		c-0.7,0.2-1.4,0.4-2.1,0.6c0.5,0,1.1-0.1,1.6-0.2c1.3-0.2,2.5-0.4,3.8-0.6c1.9-0.3,3.8-0.6,5.7-0.9c2.1-0.3,4.1-0.5,6.2-0.8
		c0.9-0.1,2.5-0.3,3.2,0.6c0.4,0.5,0.4,1.3,0.1,1.8c-0.5,1-2.4,1.6-3.4,2.1c-2.4,1.3-5.1,2.4-7.6,3.5c-2.3,1-4.6,2-6.8,3.1
		c-0.8,0.4-1.5,0.7-2.3,1.2c-0.2,0.1-0.4,0.3-0.6,0.4c-3.1,2.4,11.2-2.3,15.5-2.1c1.5,0.1,1.4,1.8-0.1,1.8c-3.7,0.4-27.3,6.9-16-2.1
		c0.9-0.6,1.9-1.1,2.9-1.6c1.2-0.6,2.4-1.2,3.7-1.8c2.2-1,4.4-2,6.6-2.9c1.2-0.5,2.3-1,3.5-1.5c-0.6,0-1.1,0.1-1.6,0.1
		c-1,0.1-2.1,0.3-3.1,0.5c-1.6,0.3-3.3,0.6-5,0.8c-1.1,0.1-2.4,0.3-3.4,0.5c-1.3,0.3-2.7,0.4-4.1,0.5c-1.1,0.1-2.3,0.1-3.5,0.1
		c-0.7,0-1.3-0.1-1.7-0.6c-0.2-0.3-0.4-0.6-0.4-0.9c0.1-2.6,10.5-4.3,12.6-5c1.1-0.3,2.2-0.5,3.3-0.8c2.2-0.6,4.5-1,6.8-1.5
		c-0.4,0-0.8,0.1-1.2,0.1c-1.3,0.2-2.6,0.4-3.9,0.6l-11.8,1.7c-0.7,0.1-1.4,0.1-2.1,0.2c-0.9,0.2-2.1,0.3-3,0.1
		c-0.5-0.1-1.1-0.4-1.2-0.9c-0.1-0.6,0.6-1.1,1.1-1.4c0.9-0.5,1.9-0.9,2.9-1.3c1.2-0.5,2.5-1,3.7-1.4c2.1-0.8,4.3-1.5,6.5-2.3
		c3.3-1.1,6.6-2.4,9.9-3.5c0.5-0.2,1-0.4,1.5-0.5c-0.6,0.1-1.3,0.3-1.9,0.4c-2.3,0.5-4.7,1.1-7,1.7c-2.2,0.5-4.4,1.1-6.6,1.7
		c-1.3,0.3-2.7,0.7-4,1c-2.3,0.5-4.6,1.2-7,1.7c-2.1,0.5-4.2,1-6.3,1.5c-3.4,0.8-6.8,1.6-10.1,2.3c-3.6,0.8-7.2,1.6-10.8,2.2
		c-1.3,0.2-5.1,0.9-6.4,0.5l-0.1,0l0-0.1c-0.3-0.4-0.6-1-0.3-1.5c0.4-0.8,1.7-1.1,2.5-1.3c1.4-0.4,2.8-0.7,4.2-1.1
		c1.4-0.4,2.9-0.7,4.4-1c1.4-0.3,2.8-0.6,4.1-0.9c1.4-0.3,2.8-0.6,4.2-0.9c2.2-0.4,4.4-0.9,6.6-1.4c1.4-0.3,2.7-0.6,4.1-0.9
		c0.5-0.1,1-0.2,1.5-0.4c0.3-0.1,0.6-0.2,0.9-0.3c1.3-0.5,2.9-0.6,4.3-1c2.8-0.8,5.7-1.4,8.5-2.2c0.7-0.2,1.4-0.4,2.1-0.6
		c1.3-0.4,2.6-0.8,3.9-1.2c1.6-0.6,3.2-1.1,4.8-1.7c2.9-1.1,5.8-2.2,8.7-3.4l2.2-0.9c-2.7,0.5-8.3,2-9.2,2.3
		c-2.2,0.6-4.3,1.2-6.5,1.8c-1.3,0.4-2.6,0.7-3.9,1.1c-3.6,1-7.2,2-10.8,2.5c-3.1,0.5-13.7,2.3-16.1,0.6c-1.2-0.8-1-2.4,0.3-3
		c1-0.5,2.4-0.7,3.6-0.9c3.4-0.6,6.7-1.9,10-2.9c0.7-0.2,3.7-1,5.3-1.5c-0.4,0-0.8,0.1-1.2,0.1c-1.1,0.2-2.3,0.3-3.4,0.5
		c-0.9,0.1-1.9,0.3-2.8,0.4c-0.8,0.1-1.6,0.2-2.4,0.2c-0.3,0-0.6,0-0.9-0.1c-1.1-0.2-2.1-0.8-1.4-2c0.4-0.8,2.1-1.2,2.9-1.5
		c1-0.3,2-0.7,3-1c1.9-0.7,3.8-1.6,5.6-2.4c1.9-0.9,3.9-1.7,5.8-2.4c1.9-0.8,3.9-1.5,5.8-2.3c1.8-0.7,3.6-1.5,5.4-2.2
		c1-0.4,2-0.8,2.9-1.2c-0.3,0.1-0.6,0.2-1,0.3c-2.9,0.8-5.9,1.5-8.8,2.1c-3,0.6-6,1.2-9,2c-2.9,0.8-5.9,1.4-8.8,2.1
		c-1.5,0.3-3,0.6-4.5,1c-1.5,0.4-3.1,0.5-4.6,0.8c-0.9,0.2-1.8,0.3-2.7,0.3c-1.5,0-3.7-0.3-3.2-2.3c0.4-1.8,4.6-2.3,6.1-2.5
		c3-0.4,5.9-1.4,8.8-2.1c0.7-0.2,1.4-0.4,2-0.6c1.4-0.5,2.9-0.7,4.3-1.2c0.1,0,0.4-0.1,0.8-0.2c-0.6,0.1-1.1,0.2-1.6,0.3
		c-0.9,0.2-1.9,0.5-2.8,0.7c-1,0.2-2.1,0.4-3.2,0.4c-1.3,0-2.2-0.3-2.1-1.8l0-0.1l0.1-0.1c0.9-1,1.9-1.3,3.2-1.7
		c1.1-0.4,2.3-0.8,3.4-1.2c1.7-0.6,3.4-1,5.1-1.5c-0.7,0.1-1.4,0.3-1.7,0.3c-0.7,0.1-1.4,0.3-2.1,0.4c-0.5,0.1-1,0.2-1.5,0.2
		c-3.9,0.2-3.6-2.6-1-4.1c0,0-0.1,0-0.1,0c-0.2,0-0.4,0.1-0.7,0.1c-1.4,0.1-3-0.4-2.5-2.2c0.3-1.1,2.1-1.7,2.9-2.2
		c-1,0-1.8-0.1-2.9-0.4c-1.2-0.3-2-1.5-1.3-2.6c0.8-1.2,6-3.2,7.5-3.9c4.3-2,8.8-3.7,13.2-5.5c1.8-0.7,3.4-1.6,5.2-2.3
		c2.7-1,5.2-2.3,7.9-3.4c0.2-0.1,0.4-0.2,0.6-0.3l0,0c-0.6,0.2-1.2,0.3-1.8,0.5c-2.4,0.6-4.7,1.3-7.1,1.9c-2,0.5-4.1,1.1-6.1,1.6
		c-0.8,0.2-1.6,0.4-2.4,0.5c-0.6,0.1-1.2,0.2-1.7,0.3c-1.4,0.1-3.8,0.5-3.9-1.6c0-1.3,2.1-2.7,3.9-3.6c-0.1,0-0.2,0.1-0.2,0.1
		c-0.7,0.2-1.8,0.6-2.5,0.5c-1.2-0.2-1.6-1.5-0.8-2.3c0.3-0.3,1-0.8,1.6-1.1c-0.1-0.1-0.3-0.1-0.4-0.2c-0.3-0.1-0.5-0.3-0.8-0.4
		l-0.1-0.1l0-0.1c-0.2-1.8,0.9-2.4,2.1-3.4c0.9-0.8,1.9-1.5,2.9-2.2c1-0.7,2-1.4,3-2.1c0.3-0.2,1.6-1.2,2.4-1.8
		c-0.9,0.2-1.8,0.7-2.7,0.6c-1.5,0-2.4-1.2-1.6-2.6c0.4-0.7,1.4-1.4,2.1-1.9c0.4-0.3,1.5-0.9,2.1-1.4c-0.7,0-1.3,0-1.9-0.4
		c-0.8-0.5-0.9-1.5-0.4-2.2C104.4,4.3,105.9,3.5,106.8,2.9L106.8,2.9z M100.6,42.9c-0.7,0.2-1.3,0.4-2,0.6c-0.9,0.3-1.9,0.5-2.8,0.8
		c-1.1,0.3-2.2,0.8-3.3,1.3c-0.2,0.1-0.4,0.2-0.6,0.3c0.7-0.2,1.3-0.5,1.8-0.6c1.2-0.4,2.4-0.9,3.6-1.2
		C98.5,43.8,99.6,43.4,100.6,42.9L100.6,42.9z"/>
	<path class="st1" d="M104.8,1.6c0,0.9,0.3,0.7,0.4,1.4c-0.8,0.6-2.5,1.4-3,2.2c-0.5,0.7-0.3,1.5,0.3,1.9c0.7,0.5,1.3,0.3,2.3,0.3
		c-0.5,0.9-3.8,2.2-4.5,3.6c-0.7,1.3,0.1,2.2,1.4,2.2c1.1,0,2.3-0.7,3.4-0.7c-0.4,0.6-5.2,4-5.9,4.4c-1,0.7-1.9,1.4-2.9,2.2
		c-1,0.8-2.2,1.5-2,3.2c0.6,0.5,1.1,0.5,1.5,0.8c-0.5,0.2-1.6,0.8-1.9,1.2c-0.6,0.8-0.3,1.8,0.7,2c1.2,0.2,4.5-1.5,5.1-1.2
		c-1.4,0.5-6.1,2.6-6,4.4c0,1.8,2,1.5,3.6,1.4c3.7-0.3,20.5-5.4,21-5.2l-1.7,0.8c-0.2,0.1-0.5,0.3-0.7,0.3c-2.6,1.1-5.2,2.4-7.9,3.4
		c-1.7,0.6-3.6,1.6-5.2,2.3c-4.4,1.8-8.8,3.5-13.2,5.5c-1.7,0.8-6.7,2.7-7.4,3.9c-0.6,1,0.1,2,1.2,2.3c1.2,0.3,1.9,0.3,3.3,0.4
		c-0.2,0.6-2.8,1.2-3.2,2.5c-0.5,1.7,1.1,2,2.2,1.9c0.2,0,0.6-0.1,0.7-0.1c1.1-0.1,0.4-0.1,0.7,0.2c-2.8,1.2-3.4,4,0.4,3.8
		c1.3-0.1,7.1-1.4,7.4-1.2c-2.2,0.9-4.8,1.4-7.1,2.2c-1.2,0.4-2.2,0.8-3.4,1.2c-1.4,0.5-2.2,0.7-3.1,1.6c-0.1,1.3,0.6,1.5,1.9,1.5
		c1,0,2.2-0.2,3.1-0.4c1.7-0.3,4.1-1.1,5.8-1.1c0,0-0.1,0-0.1,0.1c-0.1,0.2-1.7,0.7-1.9,0.8c-1.4,0.4-3,0.7-4.3,1.2
		c-0.6,0.2-1.4,0.5-2,0.6c-2.8,0.7-5.9,1.7-8.8,2.1c-1.3,0.2-5.6,0.7-5.9,2.3c-0.6,2.8,4.3,2,5.7,1.7c1.5-0.3,3.1-0.5,4.6-0.8
		c1.4-0.4,3-0.6,4.5-1c3-0.7,5.9-1.3,8.8-2.1c2.9-0.8,6-1.4,9-2c3-0.6,5.9-1.4,8.8-2.1c0.7-0.2,4-1.2,4.3-1
		c-2.6,0.9-8.4,3.5-11.5,4.7c-2.6,1-9.1,3.5-11.6,4.7c-1.8,0.9-3.6,1.7-5.6,2.5c-1.1,0.4-1.9,0.7-3.1,1.1c-0.8,0.2-2.4,0.7-2.7,1.4
		c-0.8,1.3,1,1.7,2.1,1.7c2.9,0,9-1.3,11.1-1.3c-0.4,0.4-5.4,1.7-6.6,2c-3.3,1-6.7,2.3-10.1,2.9c-1.1,0.2-2.5,0.4-3.5,0.9
		c-1.1,0.5-1.3,1.8-0.3,2.6c2.3,1.6,13.9-0.3,15.9-0.6c3.8-0.6,7.3-1.6,10.8-2.5c2.3-0.6,20.1-5.8,21.1-5.3l-3.6,1.5
		c-4,1.8-13.3,5.2-17.5,6.4c-0.7,0.2-1.4,0.4-2.1,0.6c-2.8,0.8-5.8,1.4-8.5,2.2c-1.3,0.4-3.2,0.5-4.3,1c-1.5,0.5-11.4,2.6-13.1,2.9
		c-1.4,0.3-6.9,1.5-8.3,1.9c-1.4,0.3-3,0.6-4.4,1c-1.3,0.4-2.8,0.7-4.3,1.1c-1.3,0.3-3.3,0.8-2,2.5c3.3,1,29.2-5.5,33.6-6.5
		c2.3-0.5,4.7-1.2,7-1.7c2.5-0.6,19.9-5.1,21.5-5.1c-0.4,0.4-1,0.5-1.6,0.7c-0.6,0.2-1.1,0.4-1.6,0.6c-3.3,1.1-6.6,2.4-9.9,3.5
		c-3.3,1.1-10.1,3.5-13.1,4.9c-1.8,0.9-1.2,2.6,3,1.8c0.7-0.1,1.4-0.1,2.1-0.2l11.8-1.7c1.3-0.1,2.6-0.5,3.9-0.6
		c1.4-0.2,2.6-0.3,4-0.5c0.7-0.1,3.1-0.7,3.7-0.5l-1.6,0.3c-0.5,0.1-1.2,0.2-1.7,0.3c-3.2,0.8-6.8,1.3-9.9,2.2
		c-1,0.3-2.2,0.4-3.2,0.8c-1.9,0.6-14.6,2.8-12.1,5.5c0.4,0.4,0.9,0.5,1.6,0.5c2.1,0.1,5.7-0.2,7.5-0.6c0.9-0.2,2.5-0.4,3.5-0.5
		c3-0.3,8.1-1.6,10.7-1.5c-1.3,0.7-2.8,1.4-4.3,2c-3.1,1.3-10.3,4.4-13.1,6.2c-0.8,0.5-1.5,0.6-1.4,1.9c0.9,0.9,1.5,0.3,2.3-0.2
		c0.7-0.4,1.5-0.8,2.3-1.2c3.9-1.9,10.9-4.8,14.4-6.6c0.8-0.4,2.8-1.1,3.3-2c0.3-0.5,0.2-1.2-0.1-1.6c-0.5-0.7-1.9-0.6-3-0.5
		c-2.1,0.3-4.1,0.6-6.2,0.8c-3.4,0.4-9.7,1.7-12.4,1.7c0,0,0.1-0.1,0.1-0.1c0,0,0.1,0,0.1-0.1c1.2-0.7,16.6-4.1,18.4-4.4
		c0.9-0.2,1.3-0.3,2.3-0.5c0.7-0.1,1.6-0.3,2.4-0.5c3.2-0.7,6.3-1.3,9.6-2c1-0.2,6.1-1.2,6.7-1.9c0.6-0.6,0.5-1.7-0.4-1.9
		c-1.6-0.5-8.1,0.7-10.4,1c-2.6,0.4-5.2,0.7-7.7,1.1l-7.6,1.1c-1.6,0.1-3.4,0.6-5,0.7c-1.8,0.2-3.5,0.7-5.2,0.7
		c0.3-0.5,3.9-1.5,4.5-1.8c6-2.2,12.5-4.2,18.4-6.5c4.8-1.8,9.6-2.9,14.6-4.1c1.6-0.4,6-1.1,7.3-2c0.8-0.5,0.8-1.6,0-2
		c-1.5-0.9-8.9,1.2-10.6,1.5l-9.9,2.3c-2.4,0.6-5.1,1.1-7.6,1.8l-1.8,0.4c-0.3,0.1-0.5,0-0.7-0.1c0.3-0.3,6-2.4,6.9-2.8
		c2-0.8,5-2,6.5-3.2c1.2-1,0.6-2.6-1-2.7c-2.4-0.2-9.7,1.9-12.1,2.5c-3.9,1-7.5,1.9-11.4,3.1c-1.1,0.3-2.6,0.8-3.8,1
		c-2.5,0.5-5.4,1.5-7.8,1.7c-1.5,0.1-2.8,0.5-4.2,0.6c-1.6,0.1-3.1,0.3-4.6,0.3c0.4-0.6,5.3-1.8,6-2c6.1-1.9,12.3-3.6,18.5-5.4
		c2.9-0.8,6.6-2.1,9.5-2.5c2.9-0.4,6.9-1.4,10-1.9c3-0.5,6.3-1.6,8.9-3.1c0.6-0.4,2.2-1.1,1.5-2.3c-0.5-1-2.1-0.2-3,0.1
		c-4.1,1.3-8.2,2.5-12.4,3.6c-1.1,0.3-2,0.6-3.1,0.9c-6.6,1.9-13.3,2.7-20.1,3.8c-0.6,0.1-1.2,0.1-1.8,0.2c-1.6,0.3-3.9,0.8-5.4,0.7
		c1.1-0.7,2.9-1.4,4.3-1.9c7.3-3.2,15.1-6,22.4-9.2c1.5-0.7,2.9-1.2,4.4-1.9c0.8-0.3,1.3-0.6,2.1-1c1-0.5,4.1-1.6,2.6-3.1
		c-1.2-1.2-6.4,0.8-7.7,1.2c-4,1.3-10.8,3-15,3.8l-5.1,1.2c-1.7,0.5-3.4,0.8-5,1.2c-1.3,0.3-4,1.1-5.4,1.1c0.3-0.3,0.9-0.4,1.3-0.5
		c0.5-0.1,0.8-0.3,1.3-0.4c0.9-0.3,1.9-0.5,2.9-0.8c3.6-1,7.5-2.1,11.1-3.2c6.4-2,13-3.8,19.3-5.8c1-0.3,1.8-0.7,2.7-0.9
		c1.5-0.5,4.6-1.2,3.8-3.3c-0.7-0.8-4.7,0.5-5.8,0.7c-3.4,0.6-7.8,1.8-11.2,2.7c-1.3,0.4-4.4,1.4-5.6,1.4l1.3-0.5
		c1.5-0.5,3.1-0.9,4.5-1.4c1.2-0.4,9-2.7,9.5-3.9c1.1-2.9-5.7-0.8-7.4-0.5c-1,0.2-2,0.5-3,0.8c-1.1,0.3-2,0.5-3,0.8
		c-1.8,0.5-4.2,1.3-6.1,1.7c-2.6,0.6-10.6,2.9-12.7,2.8c0.4-0.7,12-5.5,13.9-6.1c1.1-0.4,2.4-1,3.5-1.4c1.8-0.7,10.2-3.8,10.7-4.5
		c0.4-0.6,0-1.5-0.5-1.7c-0.8-0.3-4.8,1.4-5.7,1.7c-2.4,0.8-4.9,1.9-7.3,2.8c-2.3,0.8-5,2.1-7.4,2.7c-1.8,0.5-6.1,2.3-7.6,2.3
		c0.2,0,0.8-0.4,1.2-0.6c0.5-0.2,1-0.4,1.4-0.6c3.1-1.4,3.3-1.2,6.1-2.1c3.1-1,6.1-2,9.1-3.1c1-0.3,5.4-1.8,5.7-2.6
		c0.4-1-0.6-1.9-2.1-1.3c-2,0.7-4.2,1.3-6.2,2c-3,1.2-6,2.2-9,3.3c-2.2,0.8-5.9,1-8.5,0.8c0.3-0.5,4-2,4.9-2.4
		c1.7-0.9,14.2-6.2,15.5-6.6c2.9-1.1,9.5-4.1,12.7-5.6c1.6-0.7,3.4-1.6,5-2.5c0.9-0.5,1.6-0.8,1.5-2.3c-1.3-0.8-2.2-0.5-3.6-0.3
		c-2.9,0.4-7.8,1.9-10.6,2.7c-2.3,0.6-4.6,1.2-6.9,1.9c-1.2,0.3-6.2,1.6-7.3,1.5c0.8-1,12.7-6,15.4-7.2c0.9-0.4,5-1.9,4-3.3
		c-0.4-0.9-2.4-0.2-3.1,0c-1.7,0.5-8,2.7-9.1,2.8c0.2-0.3,0,0,0.2-0.3c0.6-0.5,3.8-2.1,4.5-2.4c1.1-0.6,2.4-1.2,3.4-1.9
		c0.5-0.4,0.4-0.9,0.3-1.6c-0.7-0.4-0.9-0.5-1.6-0.2l-5,2.1c-1.3,0.5-5.5,2.6-6.7,2.7c0.4-0.7,1.4-1.2,2-1.6c2.9-2.1,5.7-4,8.4-6.2
		c0.6-0.5,1.7-1.4,1-2.3c-1.1-1.4-4.4,0.7-5.8,0.7c0.4-0.7,4.5-3.1,5.4-3.7c0.7-0.5,1.2-0.6,1.1-1.9c-0.6-1.2-3.5,0.2-5,0.3
		c0.6-0.9,3.8-1.9,3.4-3.7c-0.3-1.5-2.3-1.2-3.8-0.2c0,0-0.1,0-0.1,0.1L104.8,1.6L104.8,1.6z"/>
	<path class="st2" d="M0,142v-0.5c0.4-0.1,0.7-0.2,0.8-0.4c0.1-0.2,0.2-0.4,0.2-0.8v-18.1c0-0.4-0.1-0.6-0.2-0.8
		c-0.1-0.2-0.4-0.3-0.8-0.4v-0.5h13.3c2.8,0,5,0.5,6.5,1.6c1.6,1.1,2.3,2.6,2.3,4.6c0,2-0.7,3.6-2.2,4.7c-1.5,1.2-3.5,1.7-6.1,1.7
		H5.7v7.1c0,0.4,0.1,0.7,0.2,0.8c0.1,0.2,0.4,0.3,0.8,0.4v0.5H0L0,142z M11.9,124.1H5.7v5.5h6.4c1.9,0,3.3-0.2,4.1-0.7
		c0.9-0.5,1.3-1.2,1.3-2.1c0-1-0.4-1.6-1.3-2C15.4,124.3,14,124.1,11.9,124.1L11.9,124.1z M100.3,124.3c-0.4,0-0.7,0.1-0.8,0.2
		c-0.1,0.1-0.3,0.4-0.3,0.8h-0.5v-5.8h0.5c0.1,0.4,0.2,0.7,0.4,0.8c0.2,0.1,0.4,0.2,0.8,0.2h18.1c0.4,0,0.7-0.1,0.8-0.2
		c0.1-0.1,0.3-0.4,0.3-0.8h0.5v5.9h-0.5c-0.1-0.4-0.2-0.7-0.4-0.8c-0.2-0.1-0.4-0.2-0.8-0.2h-6.7v16c0,0.4,0.1,0.7,0.2,0.8
		c0.1,0.1,0.4,0.3,0.8,0.3v0.5H106v-0.5c0.4-0.1,0.7-0.2,0.8-0.4c0.1-0.2,0.2-0.4,0.2-0.8v-16H100.3L100.3,124.3z M34.7,140.4
		c0,0.4,0.1,0.6,0.2,0.8c0.1,0.1,0.4,0.2,0.7,0.3v0.5h-6.1v-0.5c0.4-0.1,0.6-0.2,0.7-0.3c0.1-0.1,0.2-0.4,0.2-0.7v-16.3
		c0-0.4-0.1-0.6-0.2-0.8c-0.1-0.1-0.4-0.2-0.7-0.3v-0.5h6.1v0.5c-0.4,0.1-0.6,0.2-0.7,0.3c-0.1,0.1-0.2,0.4-0.2,0.8V140.4
		L34.7,140.4z M48.3,128.9v11.6c0,0.4,0.1,0.6,0.2,0.8c0.1,0.1,0.4,0.2,0.7,0.3v0.5h-5.5v-0.5c0.4-0.1,0.6-0.2,0.8-0.4
		c0.1-0.1,0.2-0.4,0.2-0.7v-16.3c0-0.4-0.1-0.6-0.2-0.8c-0.1-0.1-0.4-0.2-0.7-0.3v-0.5h6.9v0.5c-0.2,0-0.3,0.1-0.4,0.2
		c-0.1,0.1-0.2,0.2-0.2,0.4c0,0.1,0,0.3,0.1,0.4c0.1,0.1,0.2,0.3,0.4,0.5L61,135.2v-11.1c0-0.4-0.1-0.6-0.2-0.8
		c-0.1-0.1-0.4-0.2-0.8-0.3v-0.5h5.5v0.5c-0.4,0.1-0.6,0.2-0.7,0.4c-0.1,0.1-0.2,0.4-0.2,0.7v16.3c0,0.4,0.1,0.6,0.2,0.8
		c0.1,0.1,0.4,0.2,0.7,0.3v0.5h-6.4v-0.5c0.2,0,0.3-0.1,0.5-0.2c0.1-0.1,0.2-0.2,0.2-0.3c0-0.1,0-0.3-0.1-0.4
		c-0.1-0.1-0.2-0.3-0.4-0.5L48.3,128.9L48.3,128.9z M91.3,138.5c0.4,0,0.6-0.1,0.8-0.2c0.1-0.1,0.2-0.4,0.3-0.7h0.5v5.3h-0.5
		c-0.1-0.4-0.2-0.6-0.3-0.7c-0.1-0.1-0.4-0.2-0.7-0.2H73.6v-0.5c0.4-0.1,0.6-0.2,0.8-0.4c0.1-0.1,0.2-0.4,0.2-0.7v-16.3
		c0-0.4-0.1-0.6-0.2-0.8c-0.1-0.1-0.4-0.2-0.7-0.3v-0.5H91c0.4,0,0.6-0.1,0.8-0.2c0.1-0.1,0.2-0.4,0.3-0.7h0.5v5.3h-0.5
		c-0.1-0.4-0.2-0.6-0.3-0.7c-0.1-0.1-0.4-0.2-0.7-0.2H78.8v4.2h7.8c0.4,0,0.6-0.1,0.8-0.2c0.1-0.1,0.2-0.4,0.3-0.7h0.5v4.9h-0.5
		c-0.1-0.4-0.2-0.6-0.3-0.7c-0.1-0.1-0.4-0.2-0.8-0.2h-7.8v5.1H91.3L91.3,138.5z M126.8,142v-0.5c0.4-0.1,0.6-0.2,0.7-0.3
		c0.1-0.1,0.2-0.4,0.2-0.7v-16.3c0-0.3-0.1-0.6-0.2-0.7c-0.1-0.1-0.4-0.3-0.8-0.4v-0.5H139c2.5,0,4.5,0.5,5.9,1.5
		c1.4,1,2.1,2.4,2.1,4.1c0,1.5-0.4,2.7-1.3,3.6c-0.9,0.9-2.2,1.7-4,2.1l4.1,5.7c0.2,0.3,0.5,0.7,0.8,0.9c0.3,0.3,0.8,0.6,1.5,0.9
		v0.5H141v-0.5c0.3,0,0.5-0.1,0.6-0.2c0.1-0.1,0.2-0.2,0.2-0.4c0,0,0-0.2-0.1-0.4c-0.1-0.2-0.2-0.4-0.3-0.5l-4.1-5.9H132v6.4
		c0,0.4,0.1,0.6,0.2,0.7c0.1,0.1,0.4,0.2,0.8,0.3v0.5H126.8L126.8,142z M137.8,125.9H132v5.3h6c1.8,0,3-0.2,3.8-0.6
		c0.8-0.4,1.1-1.1,1.1-2.1c0-0.9-0.4-1.6-1.1-2C141.1,126.1,139.7,125.9,137.8,125.9L137.8,125.9z M171.8,138.5
		c0.4,0,0.6-0.1,0.8-0.2c0.1-0.1,0.2-0.4,0.3-0.7h0.5v5.3h-0.5c-0.1-0.4-0.2-0.6-0.3-0.7c-0.1-0.1-0.4-0.2-0.7-0.2h-17.6v-0.5
		c0.4-0.1,0.6-0.2,0.8-0.4c0.1-0.1,0.2-0.4,0.2-0.7v-16.3c0-0.4-0.1-0.6-0.2-0.8c-0.1-0.1-0.4-0.2-0.7-0.3v-0.5h17.4
		c0.4,0,0.6-0.1,0.8-0.2c0.1-0.1,0.2-0.4,0.3-0.7h0.5v5.3h-0.5c-0.1-0.4-0.2-0.6-0.3-0.7c-0.1-0.1-0.4-0.2-0.7-0.2h-12.2v4.2h7.8
		c0.4,0,0.6-0.1,0.8-0.2c0.1-0.1,0.2-0.4,0.3-0.7h0.5v4.9h-0.5c-0.1-0.4-0.2-0.6-0.3-0.7c-0.1-0.1-0.4-0.2-0.8-0.2h-7.8v5.1H171.8
		L171.8,138.5z M198.4,138.5c0.4,0,0.6-0.1,0.8-0.2c0.1-0.1,0.2-0.4,0.3-0.7h0.5v5.3h-0.5c-0.1-0.4-0.2-0.6-0.3-0.7
		c-0.1-0.1-0.4-0.2-0.7-0.2h-17.6v-0.5c0.4-0.1,0.6-0.2,0.8-0.4c0.1-0.1,0.2-0.4,0.2-0.7v-16.3c0-0.4-0.1-0.6-0.2-0.8
		c-0.1-0.1-0.4-0.2-0.7-0.3v-0.5h17.4c0.4,0,0.6-0.1,0.8-0.2c0.1-0.1,0.2-0.4,0.3-0.7h0.5v5.3h-0.5c-0.1-0.4-0.2-0.6-0.3-0.7
		c-0.1-0.1-0.4-0.2-0.7-0.2H186v4.2h7.8c0.4,0,0.6-0.1,0.8-0.2c0.1-0.1,0.2-0.4,0.3-0.7h0.5v4.9h-0.5c-0.1-0.4-0.2-0.6-0.3-0.7
		c-0.1-0.1-0.4-0.2-0.8-0.2H186v5.1H198.4L198.4,138.5z"/>
	<path class="st2" d="M79.5,152.7c0,0.1,0,0.2,0.1,0.2c0,0,0.1,0.1,0.2,0.1v0.1c-0.5,0.3-1,0.5-1.6,0.7c-0.5,0.2-1.1,0.2-1.5,0.2
		c-0.9,0-1.7-0.3-2.3-0.8c-0.6-0.5-0.9-1.2-0.9-2c0-0.8,0.3-1.5,0.9-2c0.6-0.5,1.4-0.8,2.4-0.8c0.5,0,1,0.1,1.5,0.2
		c0.5,0.1,0.7,0.2,0.7,0.2c0,0,0.1,0,0.2,0c0,0,0,0,0.1,0l0.1,0.1l-0.7,1.3l-0.1-0.1c0,0,0,0,0,0c0,0,0,0,0,0c0-0.2-0.2-0.3-0.6-0.5
		c-0.4-0.2-0.8-0.2-1.3-0.2c-0.6,0-1.1,0.2-1.5,0.5c-0.4,0.4-0.6,0.8-0.6,1.4c0,0.5,0.2,1,0.7,1.3c0.4,0.4,1,0.5,1.6,0.5
		c0.2,0,0.5,0,0.8-0.1c0.3-0.1,0.6-0.1,0.9-0.3v-0.7h-1.4c-0.1,0-0.2,0-0.2,0c0,0-0.1,0.1-0.1,0.2h-0.1v-1.3h0.1
		c0,0.1,0.1,0.2,0.1,0.2c0,0,0.1,0.1,0.2,0.1h2.6v0.1c-0.1,0-0.2,0.1-0.2,0.1c0,0-0.1,0.1-0.1,0.2V152.7L79.5,152.7z M84.7,153.9
		v-0.1c0.1,0,0.2-0.1,0.2-0.1c0,0,0.1-0.1,0.1-0.2v-4.6c0-0.1,0-0.2,0-0.2c0,0-0.1-0.1-0.2-0.1v-0.1h3.4c0.7,0,1.3,0.1,1.7,0.4
		c0.4,0.3,0.6,0.7,0.6,1.2c0,0.4-0.1,0.8-0.4,1c-0.2,0.3-0.6,0.5-1.1,0.6l1.2,1.6c0.1,0.1,0.1,0.2,0.2,0.3c0.1,0.1,0.2,0.2,0.4,0.3
		v0.1h-2v-0.1c0.1,0,0.1,0,0.2-0.1c0,0,0.1-0.1,0.1-0.1c0,0,0,0,0-0.1c0-0.1-0.1-0.1-0.1-0.2l-1.1-1.7h-1.5v1.8c0,0.1,0,0.2,0,0.2
		c0,0,0.1,0.1,0.2,0.1v0.1H84.7L84.7,153.9z M87.9,149.4h-1.7v1.5h1.7c0.5,0,0.9-0.1,1.1-0.2c0.2-0.1,0.3-0.3,0.3-0.6
		c0-0.3-0.1-0.5-0.3-0.6C88.8,149.4,88.4,149.4,87.9,149.4L87.9,149.4z M98.3,148.3c0.9,0,1.7,0.3,2.3,0.8c0.6,0.5,0.9,1.2,0.9,2
		c0,0.8-0.3,1.5-0.9,2c-0.6,0.5-1.4,0.8-2.3,0.8c-0.9,0-1.7-0.3-2.3-0.8c-0.6-0.5-0.9-1.2-0.9-2c0-0.8,0.3-1.5,0.9-2
		C96.6,148.6,97.4,148.3,98.3,148.3L98.3,148.3z M96.3,151.1c0,0.6,0.2,1,0.5,1.3c0.4,0.3,0.8,0.5,1.5,0.5c0.6,0,1.1-0.2,1.5-0.5
		c0.4-0.3,0.5-0.8,0.5-1.3c0-0.6-0.2-1-0.6-1.3c-0.4-0.3-0.9-0.5-1.5-0.5c-0.6,0-1.1,0.2-1.4,0.5C96.5,150.1,96.3,150.6,96.3,151.1
		L96.3,151.1z M107.8,151.7c0,0.5,0.1,0.8,0.4,1c0.2,0.2,0.6,0.3,1.2,0.3c0.6,0,1-0.1,1.2-0.3c0.2-0.2,0.4-0.6,0.4-1.1v-2.8
		c0-0.1,0-0.2,0-0.2c0,0-0.1-0.1-0.2-0.1v-0.1h1.7v0.1c-0.1,0-0.2,0.1-0.2,0.1c0,0-0.1,0.1-0.1,0.2v3c0,0.8-0.2,1.3-0.6,1.7
		c-0.4,0.3-1.1,0.5-2.1,0.5c-1,0-1.7-0.2-2.1-0.5c-0.4-0.3-0.6-0.9-0.6-1.7v-3c0-0.1,0-0.2,0-0.2c0,0-0.1-0.1-0.2-0.1v-0.1h1.7v0.1
		c-0.1,0-0.2,0.1-0.2,0.1c0,0-0.1,0.1-0.1,0.2V151.7L107.8,151.7z M117.7,153.9v-0.1c0.1,0,0.2-0.1,0.2-0.1c0,0,0.1-0.1,0.1-0.2
		v-4.6c0-0.1,0-0.2,0-0.2c0,0-0.1-0.1-0.2-0.1v-0.1h3.4c0.7,0,1.3,0.1,1.7,0.4c0.4,0.3,0.6,0.7,0.6,1.2c0,0.5-0.2,0.9-0.6,1.2
		c-0.4,0.3-0.9,0.4-1.5,0.4h-2.1v1.8c0,0.1,0,0.2,0,0.2c0,0,0.1,0.1,0.2,0.1v0.1H117.7L117.7,153.9z M120.8,149.3h-1.6v1.4h1.6
		c0.5,0,0.8-0.1,1.1-0.2c0.2-0.1,0.3-0.3,0.3-0.5c0-0.2-0.1-0.4-0.3-0.5C121.7,149.4,121.3,149.3,120.8,149.3L120.8,149.3z"/>
	<polygon class="st3" points="128.6,149.4 174.6,150.4 128.6,151 128.6,149.4 	"/>
	<polygon class="st3" points="66,149.4 20,150.4 66,151 66,149.4 	"/>
</g>
</svg>
